<svg xmlns="http://www.w3.org/2000/svg" viewBox="0 0 120 48">
  <g fill="#000">
    <!-- Apple logo -->
    <path d="M17.2 8.1c1.1-1.4 1.9-3.3 1.7-5.2-1.6.1-3.6 1.1-4.7 2.5-1 1.2-1.9 3.1-1.7 4.9 1.8.1 3.6-0.9 4.7-2.2z"/>
    <path d="M18.9 10.6c-2.6-.1-4.8 1.5-6 1.5s-3.2-1.4-5.2-1.4C4.8 10.8 2 12.5.8 15.2c-2.5 4.4-.6 10.9 1.8 14.5 1.2 1.8 2.6 3.7 4.5 3.6 1.8-.1 2.5-1.2 4.6-1.2 2.2 0 2.8 1.2 4.7 1.1 1.9-.1 3.2-1.8 4.4-3.5 1.4-2 1.9-3.9 2-4-.1 0-3.8-1.5-3.9-5.8-.1-3.6 2.9-5.3 3.1-5.5-1.7-2.5-4.4-2.8-5.1-2.8z"/>
    <!-- Pay text -->
    <text x="32" y="28" font-family="Arial,sans-serif" font-weight="600" font-size="18">Pay</text>
  </g>
</svg>
