<svg xmlns="http://www.w3.org/2000/svg" viewBox="0 0 36 36">
  <path fill="#00247D" d="M0 9.059V13h5.628L0 9.059zM4.664 31H13v-5.837L4.664 31zM23 31h8.335L23 25.163V31zM36 27V23h-5.631L36 27zM32 5h-9v5.837L32 5zM36 13V9.059L30.373 13H36zM13 5H4.664L13 10.837V5zM0 27l5.628-4H0v4z"/>
  <path fill="#CF1B2B" d="M14.5 21H0v-6h14.5v-15h7V15H36v6H21.5v15h-7V21z"/>
  <path fill="#EEE" d="M36 21v-6h-11V0h-14v15H0v6h11v15h14V21z"/>
  <path fill="#CF1B2B" d="M36 22.5H20.5V36h-5V22.5H0v-9h15.5V0h5v13.5H36v9z"/>
  <path fill="#00247D" d="M10 5l8 5.3V5h-8zM10 31l8-5.3V31h-8zM26 5l-8 5.3V5h8zM26 31l-8-5.3V31h8z"/>
</svg>
