<svg xmlns="http://www.w3.org/2000/svg" viewBox="0 0 120 48">
  <g fill="none" fill-rule="evenodd">
    <!-- G -->
    <path d="M25.2 24.5c0-.8-.1-1.6-.2-2.4H12.8v4.5h7c-.3 1.6-1.2 2.9-2.6 3.8v3.1h4.2c2.4-2.2 3.8-5.5 3.8-9z" fill="#4285F4"/>
    <path d="M12.8 33.4c3.5 0 6.4-1.2 8.6-3.1l-4.2-3.1c-1.2.8-2.6 1.2-4.4 1.2-3.4 0-6.2-2.3-7.3-5.3H1.2v3.2c2.1 4.2 6.5 7.1 11.6 7.1z" fill="#34A853"/>
    <path d="M5.5 23.1c-.3-.8-.4-1.6-.4-2.5s.2-1.7.4-2.5v-3.2H1.2C.4 16.3 0 17.8 0 19.6s.4 3.3 1.2 4.7l4.3-3.2z" fill="#FBBC05"/>
    <path d="M12.8 11.8c1.9 0 3.6.7 5 2l3.7-3.7C19.2 8 16.3 6.8 12.8 6.8 7.7 6.8 3.3 9.7 1.2 13.9l4.3 3.2c1.1-3 3.9-5.3 7.3-5.3z" fill="#EA4335"/>
    <!-- P -->
    <text x="30" y="30" font-family="Arial,sans-serif" font-weight="500" font-size="20" fill="#5F6368">Pay</text>
  </g>
</svg>
