<svg xmlns="http://www.w3.org/2000/svg" viewBox="0 0 120 48">
  <g fill="none">
    <!-- Visa -->
    <path d="M23.4 32H19.6L22 16h3.8L23.4 32z" fill="#1A1F71"/>
    <path d="M38.2 16.3c-.7-.3-1.9-.6-3.3-.6-3.6 0-6.2 1.9-6.2 4.7 0 2 1.8 3.2 3.2 3.8 1.4.7 1.9 1.1 1.9 1.7 0 .9-1.1 1.3-2.2 1.3-1.5 0-2.3-.2-3.5-.7l-.5-.2-.5 3.2c.9.4 2.5.7 4.1.8 3.9 0 6.3-1.9 6.4-4.8 0-1.6-1-2.8-3.1-3.8-1.3-.7-2.1-1.1-2.1-1.7 0-.6.7-1.2 2.1-1.2 1.2 0 2.1.3 2.8.5l.3.2.6-3.2z" fill="#1A1F71"/>
    <path d="M44.9 16h-2.8c-.9 0-1.5.3-1.9 1.1L35 32h3.9l.8-2.1h4.7l.4 2.1h3.4L44.9 16zm-4.5 10.5l1.9-5.3.5-1.4.3 1.3.8 4.2.3 1.2h-3.8z" fill="#1A1F71"/>
    <path d="M17.7 16L14 26.4l-.4-2c-1.3-2.3-3-4-4.6-5l3.3 12.5h3.9L21.6 16h-3.9z" fill="#1A1F71"/>
    <path d="M10.6 16H4.7l-.1.3c4.6 1.2 7.7 4 8.9 7.4L12.2 17c-.2-.8-.8-1-1.6-1z" fill="#F9A533"/>
    <!-- Mastercard circles -->
    <circle cx="80" cy="24" r="12" fill="#EB001B"/>
    <circle cx="96" cy="24" r="12" fill="#F79E1B"/>
    <path d="M88 14.5a12 12 0 0 0 0 19 12 12 0 0 0 0-19z" fill="#FF5F00"/>
  </g>
</svg>
